<svg width="48" height="48" viewBox="0 0 48 48" fill="none" xmlns="http://www.w3.org/2000/svg">
<path d="M41.5672 0H11.1842C11.1691 0 11.1568 0.00410174 11.1432 0.00410174C11.1295 0.00410174 11.1165 0 11.1022 0C7.18566 0 4 3.18636 4 7.10215V40.8978C4 44.8143 7.18636 48 11.1022 48C11.1172 48 11.1295 47.9959 11.1432 47.9959C11.1568 47.9959 11.1698 48 11.1842 48H41.5672C42.3787 48 43.037 47.3417 43.037 46.5302C43.037 45.7188 42.3787 45.0604 41.5672 45.0604L11.1842 45.0597C11.1691 45.0597 11.1568 45.0639 11.1432 45.0639C11.1295 45.0639 11.1165 45.0597 11.1022 45.0597C8.80728 45.0597 6.9403 43.1928 6.9403 40.8979C6.9403 38.603 8.80728 36.736 11.1022 36.736H41.5675C42.3789 36.736 43.0372 36.0777 43.0372 35.2663V1.47057C43.0372 0.658429 42.3787 0 41.5672 0ZM40.0975 33.7939H11.1022C9.54698 33.7939 8.11134 34.3026 6.94036 35.1543V7.1024C6.94036 4.80753 8.80734 2.94055 11.1022 2.94055C11.1173 2.94055 11.1296 2.93644 11.1432 2.93644C11.1569 2.93644 11.1699 2.94055 11.1843 2.94055H40.0972L40.0975 33.7939ZM41.5672 39.4264H11.431C10.6188 39.4264 9.96117 40.0847 9.96117 40.8962C9.96117 41.7076 10.6188 42.3659 11.431 42.3659H41.5672C42.3787 42.3659 43.037 41.7076 43.037 40.8962C43.0377 40.0854 42.3787 39.4264 41.5672 39.4264Z" fill="#3E20E4"/>
<path d="M16.8859 21.5073L15.8372 27.6196C15.7428 28.1712 15.9698 28.7291 16.4224 29.0586C16.8749 29.3867 17.4758 29.4298 17.9708 29.17L23.4609 26.2838L28.9511 29.17C29.1664 29.2828 29.4009 29.3389 29.6354 29.3389C29.9403 29.3389 30.2432 29.2439 30.4995 29.0586C30.9521 28.7291 31.1784 28.1726 31.0847 27.6196L30.036 21.5073L34.4789 17.1772C34.8796 16.7869 35.0238 16.2024 34.8515 15.6698C34.6779 15.138 34.2185 14.7497 33.6648 14.669L27.5244 13.7755L24.7789 8.21498C24.5321 7.7132 24.0215 7.396 23.4609 7.396C22.901 7.396 22.391 7.7132 22.1429 8.21498L19.3988 13.7755L13.2585 14.669C12.7047 14.7497 12.244 15.1373 12.0717 15.6698C11.8994 16.2017 12.043 16.7862 12.4443 17.1772L16.8859 21.5073ZM20.585 16.5741C21.0642 16.5044 21.4778 16.2036 21.6918 15.7702L23.4597 12.1873L25.2288 15.7702C25.4428 16.2036 25.8571 16.5044 26.3356 16.5741L30.2931 17.1504L27.4294 19.9416C27.0828 20.28 26.9249 20.7661 27.0063 21.2433L27.6817 25.1823L24.1446 23.3229C23.9299 23.2101 23.6948 23.154 23.4603 23.154C23.2251 23.154 22.9906 23.2108 22.776 23.3229L19.2382 25.1823L19.9136 21.2433C19.995 20.7668 19.8371 20.28 19.4905 19.9416L16.6268 17.1504L20.585 16.5741Z" fill="#3DD1DB"/>
</svg>
