<svg width="48" height="48" viewBox="0 0 48 48" fill="none" xmlns="http://www.w3.org/2000/svg">
<path d="M28.7773 40.8956H20.2154C19.3935 40.8956 18.7267 41.5624 18.7267 42.3843C18.7267 43.2062 19.3935 43.873 20.2154 43.873H28.7773C29.5992 43.873 30.266 43.2062 30.266 42.3843C30.266 41.5624 29.5992 40.8956 28.7773 40.8956ZM24.4968 0C14.8492 0 7 7.84995 7 17.4975C7 23.6053 10.1783 29.2424 15.3541 32.4178V33.649C15.3541 37.0114 18.0892 39.7451 21.4509 39.7451H27.5421C30.9046 39.7451 33.639 37.0114 33.639 33.649V32.4178C38.8148 29.2445 41.9945 23.6061 41.9945 17.4975C41.9938 7.84995 34.1443 0 24.4968 0ZM31.4356 30.2547C30.9579 30.5151 30.6601 31.0171 30.6601 31.5613V33.6496C30.6601 35.3689 29.2614 36.7676 27.5414 36.7676H21.4502C19.731 36.7676 18.3315 35.3696 18.3315 33.6496V31.5599C18.3315 31.015 18.0338 30.5144 17.556 30.2533C12.8815 27.7045 9.97672 22.816 9.97672 17.4975C9.97672 9.49244 16.4903 2.97814 24.4954 2.97814C32.5011 2.97814 39.014 9.49315 39.014 17.4975C39.0154 22.816 36.1109 27.7024 31.4356 30.2547ZM27.1552 45.0226H21.8374C21.0155 45.0226 20.3487 45.6894 20.3487 46.5113C20.3487 47.3332 21.0155 48 21.8374 48H27.1552C27.9771 48 28.6439 47.3332 28.6439 46.5113C28.6446 45.6894 27.9771 45.0226 27.1552 45.0226Z" fill="#3E20E4"/>
<path d="M31.053 12.4103C29.8578 11.9097 28.5685 12.0281 27.5049 12.5917C26.7398 11.6618 25.5958 11.0559 24.3018 11.0559C23.0077 11.0559 21.8638 11.6611 21.0995 12.5903C20.9797 12.5266 20.8661 12.4511 20.7394 12.3999C19.7098 11.9768 18.5777 11.9817 17.5523 12.4096C16.5261 12.8382 15.7277 13.6414 15.3046 14.6711C14.9162 15.6162 14.9058 16.6438 15.2361 17.6014C15.2458 17.6464 15.2631 17.69 15.2769 17.7336C15.2928 17.7752 15.2991 17.8181 15.3157 17.8589C15.3185 17.8652 15.3233 17.87 15.3268 17.8769C15.3309 17.888 15.333 17.8991 15.3378 17.9095L18.3825 24.5007C18.6338 25.0456 19.1725 25.3655 19.7355 25.3655C19.9439 25.3655 20.1564 25.3219 20.3586 25.2278C21.1051 24.8836 21.4305 23.9987 21.0864 23.2522L18.0625 16.7067C17.9427 16.4159 17.9406 16.0953 18.0604 15.8031C18.1802 15.5102 18.408 15.2817 18.7016 15.1591C18.9931 15.0359 19.3172 15.0352 19.6101 15.1564C19.9029 15.2761 20.1315 15.5039 20.2533 15.7968C20.2921 15.8882 20.3392 15.9762 20.3939 16.0579C20.4209 16.0967 20.4534 16.1285 20.4825 16.1638C20.5144 16.2026 20.5427 16.2435 20.5788 16.2788C20.6148 16.3134 20.6542 16.3411 20.693 16.373C20.7297 16.4027 20.7636 16.4353 20.8031 16.4616C20.8391 16.4844 20.8779 16.5011 20.9146 16.5218C20.9624 16.5474 21.0081 16.5765 21.0586 16.5973C21.1022 16.6153 21.1479 16.625 21.1929 16.6388C21.2393 16.6541 21.285 16.6714 21.3342 16.6818C21.4304 16.7019 21.5288 16.7115 21.6278 16.7115C21.6326 16.7115 21.6375 16.7109 21.643 16.7109C21.7365 16.7102 21.83 16.7019 21.922 16.6832C22.0017 16.6672 22.0758 16.6416 22.1491 16.6139C22.1671 16.6077 22.1852 16.6049 22.2018 16.598C22.2932 16.5592 22.3811 16.5121 22.4628 16.456C22.4995 16.4325 22.5293 16.4006 22.5632 16.3736C22.6048 16.3397 22.6477 16.3099 22.6851 16.2712C22.7197 16.2352 22.7474 16.1957 22.7793 16.1569C22.809 16.1202 22.8409 16.0877 22.8665 16.0475C22.8914 16.0101 22.9094 15.9693 22.9302 15.9291C22.9551 15.8841 22.9821 15.8405 23.0015 15.7934C23.0223 15.7449 23.0334 15.693 23.0479 15.6424C23.0597 15.6009 23.077 15.5607 23.0853 15.5185C23.1054 15.4223 23.1151 15.3232 23.1151 15.2235C23.1151 14.5692 23.6483 14.036 24.3026 14.036C24.9569 14.036 25.4901 14.5692 25.4901 15.2235V15.2256C25.4901 15.3246 25.5012 15.4223 25.5199 15.5185C25.5309 15.5711 25.5496 15.621 25.5656 15.6715C25.5794 15.7124 25.5877 15.7539 25.6043 15.7934C25.6251 15.8453 25.6542 15.8903 25.6805 15.9381C25.7006 15.9748 25.7165 16.0129 25.7401 16.0475C25.7671 16.089 25.8017 16.1251 25.8335 16.1624C25.8626 16.1991 25.8903 16.2372 25.9228 16.2705C25.9658 16.3134 26.0142 16.3501 26.062 16.3875C26.0897 16.4096 26.1147 16.4339 26.1444 16.454C26.3051 16.5634 26.4886 16.6416 26.6866 16.6811C26.886 16.7219 27.0868 16.7198 27.28 16.6811C27.2869 16.6804 27.2918 16.6769 27.2987 16.6748C27.3873 16.6547 27.4732 16.6298 27.5556 16.5952C27.5812 16.5841 27.6054 16.5682 27.6304 16.5557C27.692 16.526 27.7522 16.4962 27.809 16.4588C27.8312 16.4436 27.8499 16.4249 27.8713 16.4089C27.9281 16.3674 27.9828 16.3265 28.032 16.2767C28.0527 16.2559 28.0694 16.2289 28.0908 16.2061C28.1344 16.1576 28.1781 16.1105 28.2148 16.0565C28.2702 15.9748 28.3172 15.8889 28.356 15.7961C28.6081 15.1924 29.304 14.9064 29.9098 15.1591C30.2027 15.281 30.4291 15.5102 30.5503 15.8024C30.6715 16.0939 30.6687 16.4165 30.5475 16.7087L27.5258 23.2521C27.1803 23.9985 27.5057 24.8841 28.2521 25.2277C28.4543 25.3218 28.6662 25.3655 28.8753 25.3655C29.4369 25.3655 29.9763 25.0456 30.2276 24.5006L33.2708 17.9094C33.2757 17.8997 33.277 17.8893 33.2819 17.8796C33.2847 17.8727 33.2909 17.8665 33.2937 17.8595C33.3137 17.8138 33.3186 17.7654 33.3366 17.7197C33.3498 17.6809 33.3636 17.6435 33.3726 17.6034C33.7043 16.6457 33.6925 15.6168 33.3054 14.6702C32.8775 13.642 32.0791 12.8389 31.053 12.4103Z" fill="#3DD1DB"/>
</svg>
