<svg width="49" height="48" viewBox="0 0 49 48" fill="none" xmlns="http://www.w3.org/2000/svg">
<g clip-path="url(#clip0_60_3190)">
<path d="M44.428 36.601C46.7703 32.8148 48.0037 28.4741 48.0037 23.9988C48.0037 10.7657 37.2376 0 24.0043 0C10.771 0 0.00488281 10.7659 0.00488281 23.9988C0.00488281 37.2318 10.771 47.9994 24.0043 47.9994C28.4797 47.9994 32.8205 46.7654 36.6068 44.4237L46.0233 47.9091C46.1901 47.9699 46.3624 48 46.534 48C46.9176 48 47.2929 47.8503 47.5739 47.57C47.98 47.1639 48.1127 46.5595 47.9137 46.0201L44.428 36.601ZM36.9409 41.4113C36.502 41.2485 36.0111 41.3067 35.6187 41.5651C32.1673 43.8507 28.1521 45.058 24.0042 45.058C12.3916 45.058 2.94518 35.6109 2.94518 23.9977C2.94518 12.3855 12.3925 2.93928 24.0042 2.93928C35.6159 2.93928 45.0632 12.3864 45.0632 23.9977C45.0632 28.1456 43.8558 32.1621 41.5702 35.6119C41.3104 36.0023 41.2537 36.4932 41.4164 36.9342L44.0458 44.039L36.9409 41.4113Z" fill="#3E20E4"/>
<path d="M28.7106 16.7297C27.1552 16.7297 25.595 17.5098 24.4547 18.499C23.315 17.5097 21.754 16.7297 20.1988 16.7297C16.6211 16.7297 14.1221 19.3748 14.1221 23.161C14.1221 28.534 22.7755 33.3054 23.7628 33.8319C23.9795 33.9474 24.2168 34.0055 24.4547 34.0055C24.6926 34.0055 24.9298 33.9474 25.1466 33.8319C26.1338 33.3054 34.7873 28.534 34.7873 23.161C34.7873 19.3748 32.2877 16.7297 28.7106 16.7297ZM24.4547 30.853C21.3404 29.0494 17.0627 25.7015 17.0627 23.1624C17.0627 21.0088 18.2646 19.6717 20.1995 19.6717C21.2934 19.6717 22.6677 20.6281 23.2172 21.4861C23.7574 22.3297 25.1528 22.3311 25.693 21.4861C26.244 20.6288 27.6182 19.6717 28.7108 19.6717C30.6457 19.6717 31.8476 21.0096 31.8476 23.1624C31.8469 25.7016 27.5689 29.0496 24.4547 30.853Z" fill="#3DD1DB"/>
</g>
<defs>
<clipPath id="clip0_60_3190">
<rect width="49" height="48" fill="white"/>
</clipPath>
</defs>
</svg>
