<svg width="48" height="48" viewBox="0 0 48 48" fill="none" xmlns="http://www.w3.org/2000/svg">
<g clip-path="url(#clip0_60_3189)">
<path d="M47.8971 23.4658C47.893 23.4562 47.893 23.446 47.8895 23.4371C47.8711 23.3926 47.8403 23.3598 47.8191 23.3188C47.787 23.258 47.7631 23.1944 47.7221 23.1363L40.862 13.6633C40.849 13.6455 40.8326 13.6332 40.8189 13.6161C40.7745 13.5614 40.7266 13.5102 40.676 13.4603C40.6459 13.4316 40.6152 13.4035 40.5831 13.3782C40.5653 13.3646 40.553 13.3482 40.5338 13.3352C40.4949 13.3078 40.4525 13.288 40.4115 13.2634C40.378 13.2436 40.3458 13.2224 40.3096 13.2053C40.2289 13.1649 40.1462 13.1369 40.0614 13.113C40.0437 13.1068 40.0279 13.0993 40.0102 13.0952C39.9063 13.0706 39.7996 13.059 39.6937 13.0569C39.6861 13.0569 39.6779 13.0542 39.6711 13.0542L8.33093 13.0549C8.32409 13.0549 8.31726 13.0576 8.31042 13.0576C8.20378 13.0583 8.09507 13.0706 7.98981 13.0959C7.97477 13.0986 7.96315 13.1055 7.94742 13.1096C7.85992 13.1328 7.77515 13.1656 7.69037 13.2053C7.65619 13.2217 7.62474 13.2436 7.59056 13.2634C7.54955 13.288 7.50648 13.3065 7.46683 13.3352C7.44837 13.3482 7.43538 13.3646 7.41761 13.3782C7.38548 13.4049 7.35609 13.4322 7.32532 13.4603C7.27268 13.5102 7.22415 13.5621 7.18245 13.6155C7.16877 13.6332 7.15237 13.6455 7.13801 13.6633L0.277929 23.1363C0.237596 23.193 0.215036 23.2559 0.182223 23.3167C0.161714 23.3578 0.128218 23.3919 0.110443 23.4371C0.106341 23.4466 0.106341 23.4569 0.102923 23.4658C0.0673754 23.5581 0.0489179 23.6531 0.0331936 23.7502C0.0256738 23.7912 0.00995034 23.8315 0.00653246 23.8739C-0.00645635 24.0113 -0.000304082 24.1494 0.027041 24.2854C0.0290919 24.2991 0.0366116 24.3101 0.0400298 24.3224C0.0666903 24.4399 0.102923 24.5568 0.159663 24.6683C0.161714 24.6724 0.164448 24.6744 0.166499 24.6778C0.187008 24.7161 0.21777 24.7462 0.24033 24.7824C0.294335 24.8665 0.346976 24.9492 0.414653 25.0176C0.420806 25.0238 0.424224 25.0333 0.430376 25.0381L22.9625 47.5686C22.9632 47.5706 22.9645 47.5706 22.9666 47.5727C23.0185 47.6246 23.0753 47.667 23.1354 47.7108C23.1491 47.7203 23.16 47.7333 23.1744 47.7429C23.1785 47.7449 23.1812 47.749 23.1853 47.7504C23.1874 47.7525 23.1894 47.7545 23.1915 47.7545C23.2359 47.7832 23.2858 47.8065 23.3323 47.8311C23.3726 47.8509 23.4096 47.8755 23.4519 47.8919C23.4581 47.894 23.4615 47.8981 23.4677 47.8994C23.4772 47.9035 23.4875 47.9015 23.4964 47.9056C23.508 47.9097 23.5196 47.9117 23.5326 47.9152C23.5613 47.9247 23.5907 47.935 23.6201 47.9418C23.7445 47.976 23.8717 47.9999 24.0036 47.9999H24.005C24.1362 47.9999 24.2634 47.9774 24.3871 47.9418C24.4172 47.9343 24.4466 47.9241 24.4753 47.9152C24.489 47.9111 24.4999 47.909 24.5122 47.9035C24.5211 47.9015 24.5307 47.9035 24.5389 47.8994C24.545 47.8974 24.5485 47.8933 24.5546 47.8919C24.5997 47.8721 24.6428 47.8475 24.6859 47.8236C24.7289 47.8031 24.7747 47.7812 24.8144 47.7572C24.8171 47.7552 24.8205 47.7531 24.8219 47.7511C24.826 47.749 24.8287 47.7449 24.8335 47.7436C24.8534 47.7299 24.8698 47.7114 24.8882 47.6978C24.9409 47.6574 24.9928 47.6192 25.0393 47.5734C25.0393 47.5734 25.042 47.5713 25.0441 47.5693L47.5709 25.0388C47.5771 25.0327 47.5798 25.0251 47.586 25.0183C47.6557 24.9479 47.7118 24.8631 47.7651 24.777C47.7869 24.7428 47.8163 24.7141 47.8334 24.6772C47.8362 24.6731 47.8396 24.671 47.841 24.6676C47.8991 24.5548 47.9367 24.4352 47.9633 24.3149C47.9654 24.3039 47.9708 24.295 47.9729 24.2855C48.0002 24.1494 48.0064 24.01 47.9934 23.8726C47.9907 23.8322 47.9749 23.7933 47.9681 23.7529C47.951 23.6545 47.934 23.5601 47.8971 23.4658ZM36.7917 15.9958L32.6708 21.6875L27.3775 15.9958H36.7917ZM29.4386 22.5298H18.5656L24.0017 16.6843L29.4386 22.5298ZM20.6281 15.9958L15.3341 21.6889L11.2118 15.9958H20.6281ZM8.33106 17.0328L12.3118 22.5298H4.34966L8.33106 17.0328ZM5.01958 25.4701H14.1877L20.075 40.5248L5.01958 25.4701ZM24.0008 42.4924L17.3437 25.4701H30.6565L24.0008 42.4924ZM27.9281 40.5242L33.8141 25.4696H42.9815L27.9281 40.5242ZM35.69 22.53L39.6707 17.033L43.6514 22.53H35.69Z" fill="#3E20E4"/>
<path d="M45.1612 14.0361C45.5222 14.0361 45.8838 13.9048 46.1668 13.6382L47.5347 12.3544C48.1268 11.8 48.1568 10.8689 47.6004 10.2755C47.0459 9.68345 46.1128 9.65337 45.5229 10.2105L44.1549 11.4944C43.5629 12.0488 43.5328 12.9799 44.0893 13.5719C44.3778 13.8802 44.7688 14.0361 45.1612 14.0361ZM1.83135 13.6382C2.11573 13.9048 2.476 14.0361 2.83695 14.0361C3.22799 14.0361 3.6197 13.8802 3.90887 13.5712C4.46329 12.9792 4.43525 12.0481 3.84324 11.4937L2.47532 10.2099C1.88331 9.6534 0.950171 9.68348 0.397816 10.2748C-0.156605 10.8675 -0.128569 11.7986 0.463443 12.3537L1.83135 13.6382ZM34.6853 8.76338C34.9061 8.88028 35.1427 8.93566 35.3765 8.93566C35.9015 8.93566 36.4101 8.65332 36.674 8.15633L38.703 4.35063C39.0851 3.63488 38.8137 2.74411 38.098 2.36202C37.3823 1.98055 36.4894 2.25195 36.1094 2.96838L34.0804 6.77409C33.6982 7.49053 33.9696 8.38059 34.6853 8.76338ZM11.322 8.15702C11.5879 8.654 12.0951 8.93634 12.6215 8.93634C12.8539 8.93634 13.0912 8.88029 13.3106 8.76407C14.027 8.38056 14.2984 7.49117 13.917 6.77546L11.8879 2.96975C11.5044 2.25331 10.615 1.98193 9.89934 2.36339C9.1829 2.7469 8.91151 3.63629 9.29298 4.35199L11.322 8.15702ZM23.9991 7.72496C24.8105 7.72496 25.4688 7.06732 25.4688 6.25518V1.46978C25.4688 0.658323 24.8105 0 23.9991 0C23.1869 0 22.5293 0.658323 22.5293 1.46978V6.25518C22.5293 7.06732 23.1869 7.72496 23.9991 7.72496Z" fill="#3DD1DB"/>
</g>
<defs>
<clipPath id="clip0_60_3189">
<rect width="48" height="48" fill="white"/>
</clipPath>
</defs>
</svg>
