<svg width="49" height="48" viewBox="0 0 49 48" fill="none" xmlns="http://www.w3.org/2000/svg">
<g clip-path="url(#clip0_60_3188)">
<path d="M32.5194 40.6146C32.8624 40.2699 33.0566 39.802 33.0566 39.3128L33.0574 27.8926L42.5933 18.3568C48.0327 12.9191 48.0071 2.2739 48.0044 1.8239C47.9959 0.819683 47.1841 0.00876024 46.1808 0.000220088C45.7291 -0.00320145 35.0838 -0.0288601 29.6444 5.40701L20.1059 14.9461H8.68665C8.19992 14.9461 7.73118 15.1403 7.38561 15.4833L0.539036 22.3299C0.0754155 22.7935 -0.105923 23.4667 0.0608734 24.0997C0.143846 24.4196 0.31235 24.7053 0.539036 24.932C0.760576 25.1527 1.03686 25.3169 1.34993 25.4033L10.4205 27.9147L20.0837 37.578L22.5976 46.6512C22.6831 46.9625 22.8491 47.2388 23.0707 47.4595C23.2965 47.6862 23.583 47.853 23.9029 47.9394C24.5359 48.1062 25.2091 47.9231 25.671 47.4595L32.5194 40.6146ZM10.8397 24.2127L5.37374 22.7004L9.44959 18.6246H16.4269L10.8397 24.2127ZM21.7303 34.0188L13.9848 26.2724L15.6853 24.5737L23.4291 32.3191L21.7303 34.0188ZM26.0295 29.7179L18.2858 21.9724L32.2474 8.009C35.3926 4.86623 41.2238 4.00236 44.2391 3.7663C44.0022 6.78163 43.1391 12.6119 39.9938 15.7545L26.0295 29.7179ZM23.7894 37.1614L27.3222 33.6286C27.3247 33.6252 27.3299 33.6226 27.3316 33.62C27.3341 33.6175 27.3367 33.614 27.3393 33.6106L29.3802 31.5714V38.5504L25.3052 42.6263L23.7894 37.1614Z" fill="#3E20E4"/>
<path d="M14.1625 36.684C13.1472 36.6549 12.3012 37.4539 12.273 38.4709C12.2473 39.3084 11.7016 40.4452 10.9711 41.1764C9.65548 42.4937 6.67536 42.4441 4.8123 42.214C4.57963 40.3535 4.52916 37.3862 5.8533 36.062C6.58552 35.3298 7.72317 34.7832 8.55965 34.7601C9.57413 34.7345 10.3748 33.8868 10.3474 32.8714C10.32 31.857 9.47406 31.0563 8.45873 31.0837C6.69321 31.1316 4.64894 32.0648 3.25208 33.46C-0.137052 36.8492 1.25732 43.4739 1.42755 44.2182C1.50625 44.5612 1.67988 44.8683 1.92025 45.1087C2.15977 45.349 2.46599 45.5235 2.81156 45.6014C3.55488 45.7716 10.1815 47.1676 13.5724 43.7769C14.9666 42.3826 15.8999 40.3409 15.9487 38.5735C15.9787 37.5573 15.1778 36.7114 14.1625 36.684Z" fill="#3DD1DB"/>
</g>
<defs>
<clipPath id="clip0_60_3188">
<rect width="49" height="48" fill="white"/>
</clipPath>
</defs>
</svg>
