<svg width="48" height="48" viewBox="0 0 48 48" fill="none" xmlns="http://www.w3.org/2000/svg">
<g clip-path="url(#clip0_60_3187)">
<path d="M33.324 12.0611L0.536895 44.8683C-0.178965 45.5851 -0.178965 46.7465 0.536895 47.4633C0.894825 47.8217 1.36442 48 1.83313 48C2.3027 48 2.77144 47.8217 3.12937 47.4633L35.9165 14.6561C36.6323 13.9393 36.6323 12.7779 35.9165 12.0611C35.2006 11.3443 34.0399 11.3443 33.324 12.0611ZM40.377 10.6309C40.7682 10.2273 41 9.67687 41 9.11368C41 8.55134 40.769 8.00008 40.377 7.59647C39.5827 6.80118 38.1416 6.80118 37.3473 7.59647C36.9561 7.98815 36.7243 8.55049 36.7243 9.11368C36.7243 9.67602 36.9553 10.2273 37.3473 10.6309C37.7504 11.0209 38.2992 11.2547 38.8625 11.2547C39.4225 11.2547 39.9739 11.0209 40.377 10.6309Z" fill="#3E20E4"/>
<path d="M41.7822 14.7751C41.5239 13.8106 40.5308 13.2469 39.572 13.4986C38.6091 13.7569 38.0387 14.7458 38.2962 15.7078L38.8205 17.663C39.0369 18.4699 39.7641 19 40.5601 19C40.7153 19 40.873 18.9799 41.0282 18.9388C41.9911 18.6804 42.5614 17.6915 42.3048 16.7295L41.7822 14.7751ZM35.218 4.22601C35.4344 5.03206 36.1616 5.56301 36.9601 5.56301C37.1128 5.56301 37.2705 5.54288 37.4282 5.50178C38.3886 5.24428 38.9615 4.25621 38.704 3.29249L38.1822 1.33733C37.9239 0.376936 36.94 -0.194248 35.9721 0.0607354C35.0116 0.318231 34.4388 1.3063 34.6963 2.27002L35.218 4.22601ZM42.7023 7.10223C43.1628 7.10223 43.6233 6.92693 43.9731 6.578L45.4099 5.15211C46.117 4.45008 46.122 3.30852 45.4191 2.60142C44.7171 1.8935 43.573 1.89099 42.8684 2.59219L41.4316 4.01808C40.7245 4.72012 40.7194 5.86167 41.4223 6.56878C41.7754 6.9244 42.241 7.10223 42.7023 7.10223ZM46.6621 9.81805L44.7078 9.29383C43.7448 9.04219 42.7559 9.60751 42.4976 10.5696C42.2417 11.5325 42.8129 12.5214 43.7733 12.7797L45.7277 13.304C45.8854 13.3451 46.0431 13.3652 46.1983 13.3652C46.9942 13.3652 47.7232 12.8351 47.9379 12.029C48.1962 11.067 47.625 10.0773 46.6621 9.81805ZM30.3385 9.17974L32.2912 9.70397C32.4472 9.74507 32.6041 9.7652 32.7593 9.7652C33.5553 9.7652 34.2867 9.23509 34.5014 8.42904C34.7572 7.46697 34.186 6.47725 33.2256 6.21889L31.2713 5.69467C30.3167 5.44471 29.3194 6.00752 29.0611 6.97042C28.8052 7.93165 29.3765 8.92141 30.3385 9.17974Z" fill="#3DD1DB"/>
</g>
<defs>
<clipPath id="clip0_60_3187">
<rect width="48" height="48" fill="white"/>
</clipPath>
</defs>
</svg>
