<svg width="24" height="24" viewBox="0 0 24 24" fill="none" xmlns="http://www.w3.org/2000/svg">
<path d="M5 1.99976H19C19.7956 1.99976 20.5587 2.31583 21.1213 2.87844C21.6839 3.44104 22 4.20411 22 4.99976V14.9998C22 15.7954 21.6839 16.5585 21.1213 17.1211C20.5587 17.6837 19.7956 17.9998 19 17.9998H7.41L3.71 21.7098C3.61656 21.8024 3.50574 21.8758 3.38391 21.9255C3.26207 21.9753 3.13161 22.0005 3 21.9998C2.86882 22.0031 2.73868 21.9757 2.62 21.9198C2.43738 21.8447 2.28105 21.7173 2.17072 21.5536C2.06039 21.3899 2.00099 21.1972 2 20.9998V4.99976C2 4.20411 2.31607 3.44104 2.87868 2.87844C3.44129 2.31583 4.20435 1.99976 5 1.99976ZM4 18.5898L6.29 16.2898C6.38344 16.1971 6.49426 16.1237 6.61609 16.074C6.73793 16.0242 6.86839 15.999 7 15.9998H19C19.2652 15.9998 19.5196 15.8944 19.7071 15.7069C19.8946 15.5193 20 15.265 20 14.9998V4.99976C20 4.73454 19.8946 4.48019 19.7071 4.29265C19.5196 4.10511 19.2652 3.99976 19 3.99976H5C4.73478 3.99976 4.48043 4.10511 4.29289 4.29265C4.10536 4.48019 4 4.73454 4 4.99976V18.5898Z" fill="#222222"/>
</svg>
