<svg width="24" height="24" viewBox="0 0 24 24" fill="none" xmlns="http://www.w3.org/2000/svg">
<path d="M16.5328 3.00395L14.4061 3C12.0168 3 10.4727 4.8353 10.4727 7.67593V9.83184H8.3344C8.14963 9.83184 8 10.0054 8 10.2195V13.3431C8 13.5572 8.1498 13.7306 8.3344 13.7306H10.4727V21.6126C10.4727 21.8266 10.6223 22 10.8071 22H13.597C13.7818 22 13.9314 21.8265 13.9314 21.6126V13.7306H16.4316C16.6164 13.7306 16.766 13.5572 16.766 13.3431L16.767 10.2195C16.767 10.1167 16.7317 10.0182 16.6691 9.9455C16.6065 9.87276 16.5212 9.83184 16.4325 9.83184H13.9314V8.00424C13.9314 7.12583 14.1121 6.6799 15.0998 6.6799L16.5324 6.67931C16.717 6.67931 16.8667 6.50576 16.8667 6.29189V3.39137C16.8667 3.1777 16.7172 3.00435 16.5328 3.00395Z" fill="#222222"/>
</svg>
