<svg width="24" height="24" viewBox="0 0 24 24" fill="none" xmlns="http://www.w3.org/2000/svg">
<path d="M20.9602 5.97763C20.5322 6.17898 20.0878 6.33783 19.6318 6.45284C20.1342 5.94638 20.512 5.31292 20.7251 4.60586C20.786 4.40401 20.5793 4.22946 20.4075 4.33754C19.7731 4.73666 19.0898 5.03608 18.3765 5.22756C18.3351 5.23868 18.2924 5.24431 18.2496 5.24431C18.1197 5.24431 17.9934 5.19313 17.894 5.10025C17.1351 4.39075 16.159 4 15.1456 4C14.7071 4 14.2644 4.0725 13.8297 4.21551C12.4829 4.65863 11.4437 5.83711 11.1176 7.2911C10.9953 7.83646 10.9622 8.38233 11.0191 8.9135C11.0256 8.97454 10.9984 9.01714 10.9817 9.03712C10.9522 9.07215 10.9105 9.09223 10.8671 9.09223C10.8623 9.09223 10.8573 9.09198 10.8524 9.09148C7.90416 8.80094 5.24561 7.29428 3.36641 4.84912C3.27059 4.7244 3.08682 4.7397 3.01044 4.87867C2.64245 5.54836 2.44798 6.31432 2.44798 7.09373C2.44798 8.28821 2.90038 9.41387 3.68621 10.2345C3.35575 10.1514 3.0359 10.0205 2.73879 9.84543C2.59505 9.76073 2.41819 9.8696 2.41617 10.044C2.3956 11.8185 3.37501 13.3974 4.8422 14.1084C4.81265 14.1092 4.78311 14.1095 4.75351 14.1095C4.52094 14.1095 4.28546 14.0857 4.05369 14.0387C3.89182 14.0059 3.75583 14.1688 3.80609 14.3353C4.28232 15.9124 5.56245 17.0749 7.09437 17.3388C5.82297 18.2442 4.3424 18.7217 2.80141 18.7217L2.321 18.7214C2.17299 18.7214 2.0478 18.8238 2.01008 18.9758C1.97293 19.1256 2.04137 19.2836 2.16759 19.3615C3.90403 20.4335 5.8847 21 7.89632 21C9.65714 21 11.3042 20.6293 12.7919 19.8983C14.1557 19.2282 15.3609 18.2703 16.3739 17.0511C17.3176 15.9154 18.0556 14.6044 18.5672 13.1545C19.055 11.7724 19.3128 10.2977 19.3128 8.88978V8.82271C19.3127 8.59664 19.4091 8.38393 19.5773 8.23913C20.2154 7.68952 20.7711 7.04255 21.2289 6.31621C21.3498 6.12442 21.1591 5.88405 20.9602 5.97763Z" fill="#222222"/>
</svg>
